<svg width="68" height="83" viewBox="0 0 68 83" fill="none" xmlns="http://www.w3.org/2000/svg">
<path d="M32.16 19.304V53H23.952V39.128H11.184V53H2.976V19.304H11.184V32.504H23.952V19.304H32.16Z" fill="#012025"/>
<path d="M56.976 69.76L52.656 63.952C51.376 64.208 50.128 64.336 48.912 64.336C45.744 64.336 42.832 63.6 40.176 62.128C37.552 60.656 35.456 58.608 33.888 55.984C32.352 53.328 31.584 50.352 31.584 47.056C31.584 43.76 32.352 40.8 33.888 38.176C35.456 35.552 37.552 33.504 40.176 32.032C42.832 30.56 45.744 29.824 48.912 29.824C52.08 29.824 54.976 30.56 57.6 32.032C60.256 33.504 62.336 35.552 63.84 38.176C65.376 40.8 66.144 43.76 66.144 47.056C66.144 49.936 65.552 52.576 64.368 54.976C63.216 57.344 61.6 59.312 59.52 60.88L66.912 69.76H56.976ZM39.984 47.056C39.984 50.032 40.784 52.416 42.384 54.208C44.016 55.968 46.192 56.848 48.912 56.848C51.6 56.848 53.744 55.952 55.344 54.16C56.976 52.368 57.792 50 57.792 47.056C57.792 44.08 56.976 41.712 55.344 39.952C53.744 38.16 51.6 37.264 48.912 37.264C46.192 37.264 44.016 38.144 42.384 39.904C40.784 41.664 39.984 44.048 39.984 47.056Z" fill="white"/>
</svg>
